Sleepers [BDRip-1080p-Mkv-Ita/Eng/Esp-Ac3-MultiSub][Nautilus-BT]


General
Complete name                    : E:\Sleepers [BDRip-1080p-MultiLang-MultiSub-Chapters][RiP By MaX].mkv
Format                           : Matroska
File size                        : 7.96 GiB
Duration                         : 2h 27mn
Overall bit rate                 : 7 745 Kbps
Encoded date                     : UTC 2011-05-19 00:11:12
Writing application              : mkvmerge v4.7.0 ('Just Like You Imagined') built on Apr 21 2011 01:13:14
Writing library                  : libebml v1.2.0 + libmatroska v1.1.0

Video
ID                               : 1
Format                           : AVC
Format/Info                      : Advanced Video Codec
Format profile                   : High@L4.1
Format settings, CABAC           : Yes
Format settings, ReFrames        : 4 frames
Muxing mode                      : Container profile=Unknown@4.1
Codec ID                         : V_MPEG4/ISO/AVC
Duration                         : 2h 27mn
Bit rate                         : 7 035 Kbps
Width                            : 1 920 pixels
Height                           : 816 pixels
Display aspect ratio             : 2.35:1
Frame rate                       : 23.976 fps
Color space                      : YUV
Chroma subsampling               : 4:2:0
Bit depth                        : 8 bits
Scan type                        : Progressive
Bits/(Pixel*Frame)               : 0.187
Stream size                      : 7.08 GiB (89%)
Title                            : Sleepers [BDRip 1080p][RiP By MaX]
Writing library                  : x264 core 115 r1995 c1e60b9
Encoding settings                : cabac=1 / ref=5 / deblock=1:0:0 / analyse=0x3:0x133 / me=umh / subme=7 / psy=1 / psy_rd=1.00:0.00 / mixed_ref=1 / me_range=32 / chroma_me=1 / trellis=2 / 8x8dct=1 / cqm=0 / deadzone=21,11 / fast_pskip=1 / chroma_qp_offset=-2 / threads=6 / sliced_threads=0 / slices=4 / nr=0 / decimate=1 / interlaced=0 / bluray_compat=1 / constrained_intra=0 / bframes=3 / b_pyramid=1 / b_adapt=2 / b_bias=0 / direct=1 / weightb=1 / open_gop=1 / weightp=1 / keyint=240 / keyint_min=23 / scenecut=40 / intra_refresh=0 / rc_lookahead=40 / rc=2pass / mbtree=1 / bitrate=7035 / ratetol=1.0 / qcomp=0.60 / qpmin=10 / qpmax=51 / qpstep=4 / cplxblur=20.0 / qblur=0.5 / vbv_maxrate=40000 / vbv_bufsize=40000 / nal_hrd=vbr / ip_ratio=1.40 / aq=1:1.00
Language                         : Italian

Audio #1
ID                               : 2
Format                           : AC-3
Format/Info                      : Audio Coding 3
Mode extension                   : CM (complete main)
Codec ID                         : A_AC3
Duration                         : 2h 27mn
Bit rate mode                    : Constant
Bit rate                         : 192 Kbps
Channel(s)                       : 2 channels
Channel positions                : Front: L R
Sampling rate                    : 48.0 KHz
Bit depth                        : 16 bits
Stream size                      : 202 MiB (2%)
Title                            : Ita Ac3 2.0
Language                         : Italian

Audio #2
ID                               : 3
Format                           : AC-3
Format/Info                      : Audio Coding 3
Mode extension                   : CM (complete main)
Codec ID                         : A_AC3
Duration                         : 2h 27mn
Bit rate mode                    : Constant
Bit rate                         : 256 Kbps
Channel(s)                       : 6 channels
Channel positions                : Front: L C R, Side: L R, LFE
Sampling rate                    : 48.0 KHz
Bit depth                        : 16 bits
Stream size                      : 269 MiB (3%)
Title                            : Eng Ac3 5.1

Audio #3
ID                               : 4
Format                           : AC-3
Format/Info                      : Audio Coding 3
Mode extension                   : CM (complete main)
Codec ID                         : A_AC3
Duration                         : 2h 27mn
Bit rate mode                    : Constant
Bit rate                         : 256 Kbps
Channel(s)                       : 6 channels
Channel positions                : Front: L C R, Side: L R, LFE
Sampling rate                    : 48.0 KHz
Bit depth                        : 16 bits
Stream size                      : 269 MiB (3%)
Title                            : Esp Ac3 5.1
Language                         : Spanish

Text #1
ID                               : 5
Format                           : UTF-8
Codec ID                         : S_TEXT/UTF8
Codec ID/Info                    : UTF-8 Plain Text
Title                            : Sub Ita Forced
Language                         : Italian

Text #2
ID                               : 6
Format                           : UTF-8
Codec ID                         : S_TEXT/UTF8
Codec ID/Info                    : UTF-8 Plain Text
Title                            : Sub Ita
Language                         : Italian

Text #3
ID                               : 7
Format                           : UTF-8
Codec ID                         : S_TEXT/UTF8
Codec ID/Info                    : UTF-8 Plain Text
Title                            : Sub Eng

Text #4
ID                               : 8
Format                           : UTF-8
Codec ID                         : S_TEXT/UTF8
Codec ID/Info                    : UTF-8 Plain Text
Title                            : Sub Fra Forced
Language                         : French

Text #5
ID                               : 9
Format                           : UTF-8
Codec ID                         : S_TEXT/UTF8
Codec ID/Info                    : UTF-8 Plain Text
Title                            : Sub Fra
Language                         : French

Text #6
ID                               : 10
Format                           : UTF-8
Codec ID                         : S_TEXT/UTF8
Codec ID/Info                    : UTF-8 Plain Text
Title                            : Sub Deu Forced
Language                         : German

Text #7
ID                               : 11
Format                           : UTF-8
Codec ID                         : S_TEXT/UTF8
Codec ID/Info                    : UTF-8 Plain Text
Title                            : Sub Deu
Language                         : German

Text #8
ID                               : 12
Format                           : UTF-8
Codec ID                         : S_TEXT/UTF8
Codec ID/Info                    : UTF-8 Plain Text
Title                            : Sub Esp Forced
Language                         : Spanish

Text #9
ID                               : 13
Format                           : UTF-8
Codec ID                         : S_TEXT/UTF8
Codec ID/Info                    : UTF-8 Plain Text
Title                            : Sub Esp
Language                         : Spanish

Text #10
ID                               : 14
Format                           : VobSub
Codec ID                         : S_VOBSUB
Codec ID/Info                    : The same subtitle format used on DVDs
Title                            : Sub Jap
Language                         : Japanese

Text #11
ID                               : 15
Format                           : UTF-8
Codec ID                         : S_TEXT/UTF8
Codec ID/Info                    : UTF-8 Plain Text
Title                            : Sub Por
Language                         : Portuguese

Text #12
ID                               : 16
Format                           : UTF-8
Codec ID                         : S_TEXT/UTF8
Codec ID/Info                    : UTF-8 Plain Text
Title                            : Sub Dan
Language                         : Danish

Text #13
ID                               : 17
Format                           : UTF-8
Codec ID                         : S_TEXT/UTF8
Codec ID/Info                    : UTF-8 Plain Text
Title                            : Sub Ned
Language                         : Dutch

Text #14
ID                               : 18
Format                           : UTF-8
Codec ID                         : S_TEXT/UTF8
Codec ID/Info                    : UTF-8 Plain Text
Title                            : Sub Fin
Language                         : Finnish

Text #15
ID                               : 19
Format                           : UTF-8
Codec ID                         : S_TEXT/UTF8
Codec ID/Info                    : UTF-8 Plain Text
Title                            : Sub Nor
Language                         : Norwegian

Text #16
ID                               : 20
Format                           : UTF-8
Codec ID                         : S_TEXT/UTF8
Codec ID/Info                    : UTF-8 Plain Text
Title                            : Sub Swe
Language                         : Swedish

Text #17
ID                               : 21
Format                           : VobSub
Codec ID                         : S_VOBSUB
Codec ID/Info                    : The same subtitle format used on DVDs
Title                            : Sub Chi
Language                         : Chinese

Menu
00:00:00.000                     : :Friendship Deeper Than Blood
00:08:42.522                     : :Hell's Kitchen 1966
00:16:53.346                     : :Easy Targets at Holy Angels
00:21:21.447                     : :Father Bobby and Carol Martinez
00:26:34.092                     : :King Benny Then and Now
00:32:32.117                     : :Michelangelo on Asphalt
00:40:59.165                     : :Needing a Priest
00:50:24.021                     : :More Than the Right Thing to Do
00:59:35.572                     : :Hitting the Hotdog Vendor
01:08:22.098                     : :The Minute Everything Changed
01:15:19.640                     : :The Least of My Brethren
01:26:17.339                     : :A Good Lie
01:36:47.969                     : :The First Day at Wilkenson
01:44:20.171                     : :The Cafeteria Floor
01:53:28.218                     : :Childhood's End
02:04:12.195                     : :Close to Father Bobby
02:14:03.035                     : :A Gift
02:23:02.908                     : :90 Minutes of Freedom